<svg width="160" height="160" viewBox="0 0 160 160" fill="none" xmlns="http://www.w3.org/2000/svg">
<circle cx="80" cy="80" r="80" fill="#D8EAFF"/>
<rect opacity="0.1" x="30" y="30" width="100" height="100" fill="#D9D9D9"/>
<path d="M100 43C100 38.5817 96.4183 35 92 35H68C63.5817 35 60 38.5817 60 43V47C60 48.6569 58.6569 50 57 50H53C48.5817 50 45 53.5817 45 58L45 102C45 106.418 48.5817 110 53 110H57C58.6569 110 60 111.343 60 113V117C60 121.418 63.5817 125 68 125H92C96.4183 125 100 121.418 100 117V113C100 111.343 101.343 110 103 110H107C111.418 110 115 106.418 115 102V88C115 83.5817 111.418 80 107 80H105C100.582 80 97 83.5817 97 88V104C97 105.657 95.6569 107 94 107H66C64.3431 107 63 105.657 63 104V56C63 54.3431 64.3431 53 66 53H92C96.4183 53 100 49.4183 100 45V43Z" fill="#111111"/>
</svg>
